<?xml version="1.0" encoding="utf-8"?>
<!-- Svg Vector Icons : http://www.onlinewebfonts.com/icon -->
<!DOCTYPE svg PUBLIC "-//W3C//DTD SVG 1.1//EN" "http://www.w3.org/Graphics/SVG/1.1/DTD/svg11.dtd">
<svg version="1.1" xmlns="http://www.w3.org/2000/svg" xmlns:xlink="http://www.w3.org/1999/xlink" x="0px" y="0px" viewBox="0 0 1000 1000" enable-background="new 0 0 1000 1000" xml:space="preserve">
<metadata> Svg Vector Icons : http://www.onlinewebfonts.com/icon </metadata>
<g><g transform="translate(0.000000,511.000000) scale(0.100000,-0.100000)"><path d="M3809.6,5004.8c-145.2-22.1-211.5-214.7-116.8-347.3l47.4-69.5H5000h1259.9l47.4,69.5c66.3,94.7,63.2,192.6-6.3,277.9c-56.8,69.5-60,69.5-1237.8,72.6C4412.7,5011.1,3847.5,5011.1,3809.6,5004.8z"/><path d="M1103.6,4142.8l-82.1-63.2v-944.1c0-877.8,3.2-944.1,60-1013.6l60-75.8H5000h3858.5l60,75.8c56.9,69.5,60,135.8,60,1004.1v928.3l-78.9,75.8l-75.8,78.9H5006.3C1192,4209.1,1188.8,4209.1,1103.6,4142.8z M8536.5,3119.7v-647.3H5000H1463.5v647.3V3767H5000h3536.5V3119.7z"/><path d="M1596.1,1487.2c-37.9-22.1-85.3-82.1-104.2-148.4c-22.1-75.8-28.4-1083-22.1-3053.4c9.5-2841.8,12.6-2946,69.5-3009.2l60-66.3H5000c3343.9,0,3400.7,0,3457.5,63.2c53.7,56.8,56.8,224.2,56.8,3056.5c0,1645.1-9.5,3021.8-22.1,3059.7c-44.2,135.8-258.9,154.7-359.9,34.7c-28.4-34.7-41.1-735.7-44.2-2917.6l-9.5-2870.2H5000H1921.4l-9.5,2876.5c-6.3,2690.3-9.5,2879.7-63.2,2923.9C1769.8,1506.2,1678.2,1525.1,1596.1,1487.2z"/><path d="M3310.7,476.8c-34.7-18.9-72.6-50.5-85.3-69.5c-12.6-18.9-25.3-783.1-25.3-1698.8v-1664l69.5-47.4c37.9-28.4,101-50.5,135.8-50.5c34.7,0,97.9,22.1,135.8,50.5l69.5,47.4v1664c0,915.7-12.6,1679.8-25.3,1698.8c-25.3,37.9-145.2,107.4-186.3,107.4C3386.5,514.7,3345.4,495.8,3310.7,476.8z"/><path d="M4857.9,435.8L4779,360V-1282v-1641.9l82.1-63.2c110.5-85.3,186.3-82.1,281,12.6l78.9,75.8v1629.3V360l-78.9,75.8C5044.2,536.8,4955.8,536.8,4857.9,435.8z"/><path d="M6499.9,476.8c-34.7-18.9-72.6-50.5-85.3-69.5c-12.6-18.9-25.3-783.1-25.3-1698.8v-1664l69.5-47.4c97.9-69.5,202.1-63.2,277.9,12.6c60,60,63.2,104.2,63.2,1714.6c0,906.2-12.7,1664-25.3,1683c-25.3,37.9-145.3,107.4-186.3,107.4C6575.6,514.7,6534.6,495.8,6499.9,476.8z"/></g></g>
</svg>